# xmcd
#
# Track frame offsets:
#	150
#	18632
#	37197
#	53875
#	74675
#	86247
#	101255
#	120077
#	139025
#	156980
#
# Disc length: 2326 seconds
#
# Revision: 1
# Processed by: cddbd v1.5.1PL0 Copyright (c) Steve Scherf et al.
# Submitted via: CDex 1.50Beta5
#
DISCID=8809140a
DTITLE=サウンドトラック - Memorial Hit Songs
DYEAR=1900
DGENRE=
TTITLE0=Say Yes
TTITLE1=どんなときも
TTITLE2=未来予想図
TTITLE3=ALONE
TTITLE4=守ってあげたい
TTITLE5=いとしのエリー
TTITLE6=真夏の果実
TTITLE7=壊れかけのラジオ
TTITLE8=LOVE IS ALL
TTITLE9=I LOVE YOU
EXTD=
EXTT0=
EXTT1=
EXTT2=
EXTT3=
EXTT4=
EXTT5=
EXTT6=
EXTT7=
EXTT8=
EXTT9=
PLAYORDER=
